<?xml version="1.0"?>
<svg width="132" height="24" xmlns="http://www.w3.org/2000/svg" xmlns:svg="http://www.w3.org/2000/svg">
 <g class="layer">
  <title>Layer 1</title>
  <path d="m38.56,19.5c2.16,0 3.25,-1.12 3.72,-1.88l0.22,0c0.09,0.81 0.66,1.57 1.78,1.57l2.11,0l0,-2.37l-0.55,0c-0.38,0 -0.57,-0.21 -0.57,-0.55l0,-9.49l-2.8,0l0,1.51l-0.21,0c-0.55,-0.76 -1.69,-1.82 -3.77,-1.82c-3.32,0 -5.79,2.74 -5.79,6.51s2.51,6.52 5.86,6.52m0.49,-2.7c-1.96,0 -3.5,-1.45 -3.5,-3.79c0,-2.3 1.49,-3.86 3.48,-3.86c1.9,0 3.49,1.39 3.49,3.86c0,2.1 -1.35,3.79 -3.46,3.79m8.98,7.2l2.8,0l0,-6.38l0.21,0c0.52,0.76 1.64,1.87 3.85,1.87c3.32,0 5.74,-2.79 5.74,-6.51c0,-3.74 -2.59,-6.51 -5.93,-6.51c-2.14,0 -3.18,1.16 -3.68,1.8l-0.21,0l0,-1.49l-2.78,0l0,17.22zm6.26,-7.13c-1.92,0 -3.51,-1.42 -3.51,-3.89c0,-2.11 1.35,-3.88 3.46,-3.88c1.97,0 3.52,1.54 3.52,3.88c0,2.3 -1.5,3.89 -3.47,3.89m7.78,7.13l2.8,0l0,-6.38l0.21,0c0.53,0.76 1.64,1.87 3.85,1.87c3.32,0 5.51,-2.79 5.51,-6.51c0,-3.74 -2.36,-6.51 -5.7,-6.51c-2.14,0 -3.18,1.16 -3.68,1.8l-0.21,0l0,-1.49l-2.78,0l0,17.22zm6.26,-7.13c-1.92,0 -3.51,-1.42 -3.51,-3.89c0,-2.11 1.36,-3.88 3.47,-3.88c1.97,0 3.51,1.54 3.51,3.88c0,2.3 -1.5,3.89 -3.47,3.89m9.81,2.61l3.96,0l2.26,-9.74l0.14,0l2.25,9.74l3.94,0l3.15,-12.42l-2.82,0l-2.25,9.76l-0.22,0l-2.25,-9.76l-3.72,0l-2.28,9.76l-0.21,0l-2.23,-9.76l-2.99,0l3.27,12.42zm17.12,0l2.8,0l0,-6.14c0,-2.34 1.09,-3.79 3.13,-3.79l1.24,0l0,-2.79l-0.93,0c-1.59,0 -2.8,1.09 -3.27,2.13l-0.19,0l0,-1.83l-2.78,0l0,12.42zm21.06,0l2.18,0l0,-2.49l-2.16,0c-0.85,0 -1.21,-0.38 -1.21,-1.26l0,-6.2l3.51,0l0,-2.47l-3.51,0l0,-3.48l-2.65,0l0,3.48l-2.33,0l0,2.47l2.16,0l0,6.23c0,2.63 1.59,3.72 4.01,3.72m9.69,0.02c2.59,0 4.87,-1.29 5.67,-3.86l-2.56,-0.62c-0.45,1.37 -1.75,2.08 -3.13,2.08c-2.04,0 -3.39,-1.32 -3.42,-3.41l9.42,0l0,-0.78c0,-3.69 -2.3,-6.44 -6.1,-6.44c-3.34,0 -6.21,2.63 -6.21,6.54c0,3.79 2.54,6.49 6.33,6.49m-3.41,-7.84c0.16,-1.5 1.51,-2.75 3.29,-2.75c1.71,0 3.11,1.06 3.25,2.75l-6.54,0z" fill="#000000" id="svg_1"/>
  <path clip-rule="evenodd" d="m108.92,19.48l-2.8,0l0,-9.95l-2.19,0l0,-2.47l4.99,0l0,12.42z" fill="#000000" fill-rule="evenodd" id="svg_2"/>
  <path d="m107.31,5.34c1.02,0 1.78,-0.76 1.78,-1.75c0,-0.97 -0.76,-1.73 -1.78,-1.73s-1.78,0.76 -1.78,1.73c0,0.99 0.76,1.75 1.78,1.75" fill="#000000" id="svg_3"/>
  <path d="m24.44,16.43l0,5.48l-13.69,0c-3.99,0 -7.47,-2.2 -9.33,-5.48q-0.41,-0.71 -0.71,-1.49a11,11 0 0 1 -0.71,-3.24l0,-1.49q0.03,-0.38 0.08,-0.75q0.1,-0.76 0.3,-1.49c1.28,-4.6 5.44,-7.97 10.37,-7.97c4.93,0 9.09,3.37 10.37,7.97l-5.85,0c-0.96,-1.5 -2.63,-2.49 -4.52,-2.49s-3.55,0.99 -4.51,2.49a5.5,5.5 0 0 0 -0.67,1.49a5.6,5.6 0 0 0 -0.21,1.5a5.5,5.5 0 0 0 1.69,3.98a5.32,5.32 0 0 0 3.7,1.49l13.69,0z" fill="#FD366E" id="svg_4"/>
  <path d="m24.44,9.46l0,5.48l-9.99,0a5.5,5.5 0 0 0 1.69,-3.98a5.6,5.6 0 0 0 -0.2,-1.5l8.5,0z" fill="#FD366E" id="svg_5"/>
 </g>
</svg>